<mxfile host="app.diagrams.net" modified="2023-05-16T08:05:23.890Z" agent="Mozilla/5.0 (Windows NT 10.0; Win64; x64) AppleWebKit/537.36 (KHTML, like Gecko) Chrome/113.0.0.0 Safari/537.36 Edg/113.0.1774.42" etag="2h9qJoMFVguNytKXfdQR" version="21.2.9" type="github">
  <diagram id="C5RBs43oDa-KdzZeNtuy" name="Page-1">
    <mxGraphModel dx="819" dy="437" grid="1" gridSize="10" guides="1" tooltips="1" connect="1" arrows="1" fold="1" page="1" pageScale="1" pageWidth="827" pageHeight="1169" background="none" math="0" shadow="0">
      <root>
        <mxCell id="WIyWlLk6GJQsqaUBKTNV-0" />
        <mxCell id="WIyWlLk6GJQsqaUBKTNV-1" parent="WIyWlLk6GJQsqaUBKTNV-0" />
        <mxCell id="P7pRMe5Ul1fr2p-EMN7y-0" value="获取画布数量&lt;br&gt;以及对应的id，名字&lt;br&gt;保存在结构体数组中&lt;br&gt;保存的画布顺序与网页端左侧列表顺序一致" style="rounded=1;whiteSpace=wrap;html=1;" vertex="1" parent="WIyWlLk6GJQsqaUBKTNV-1">
          <mxGeometry x="296" y="30" width="236" height="60" as="geometry" />
        </mxCell>
        <mxCell id="P7pRMe5Ul1fr2p-EMN7y-1" value="页面管理器初始化&lt;br&gt;创建管理器以及用于切换页面的下拉列表" style="rounded=1;whiteSpace=wrap;html=1;" vertex="1" parent="WIyWlLk6GJQsqaUBKTNV-1">
          <mxGeometry x="299" y="130" width="230" height="60" as="geometry" />
        </mxCell>
        <mxCell id="P7pRMe5Ul1fr2p-EMN7y-2" value="创建页面&lt;br&gt;给定父对象以及id，这个id既是页面id，也是对应画布id" style="rounded=1;whiteSpace=wrap;html=1;" vertex="1" parent="WIyWlLk6GJQsqaUBKTNV-1">
          <mxGeometry x="299" y="230" width="230" height="60" as="geometry" />
        </mxCell>
        <mxCell id="P7pRMe5Ul1fr2p-EMN7y-3" value="加载页面，根据id获取画布组件信息&lt;br&gt;除了文本组件，其余组件信息为json字段，保存在结构体数组中" style="rounded=1;whiteSpace=wrap;html=1;" vertex="1" parent="WIyWlLk6GJQsqaUBKTNV-1">
          <mxGeometry x="299" y="320" width="230" height="60" as="geometry" />
        </mxCell>
        <mxCell id="P7pRMe5Ul1fr2p-EMN7y-4" value="绘制组件，先解析保存的json字段获取实际组件信息" style="rounded=1;whiteSpace=wrap;html=1;" vertex="1" parent="WIyWlLk6GJQsqaUBKTNV-1">
          <mxGeometry x="299" y="420" width="230" height="60" as="geometry" />
        </mxCell>
        <mxCell id="P7pRMe5Ul1fr2p-EMN7y-5" value="再根据分辨率等值缩放" style="rounded=1;whiteSpace=wrap;html=1;" vertex="1" parent="WIyWlLk6GJQsqaUBKTNV-1">
          <mxGeometry x="299" y="520" width="230" height="60" as="geometry" />
        </mxCell>
        <mxCell id="P7pRMe5Ul1fr2p-EMN7y-6" value="如果是文本组件还需要获取读写权限" style="rounded=1;whiteSpace=wrap;html=1;" vertex="1" parent="WIyWlLk6GJQsqaUBKTNV-1">
          <mxGeometry x="299" y="630" width="230" height="60" as="geometry" />
        </mxCell>
      </root>
    </mxGraphModel>
  </diagram>
</mxfile>
